HIERARCHY
ROOT root
{
	OFFSET 0.000000 0.000000 0.000000
	CHANNELS 6 Xposition Yposition Zposition Zrotation Yrotation Xrotation
	JOINT lhip
	{
		OFFSET 0.058581 -0.082280 -0.017664
		CHANNELS 3 Zrotation Yrotation Xrotation
		JOINT lknee
		{
			OFFSET 0.043451 -0.386469 0.008037
			CHANNELS 3 Zrotation Yrotation Xrotation
			JOINT lankle
			{
				OFFSET -0.014790 -0.426874 -0.037428
				CHANNELS 3 Zrotation Yrotation Xrotation
				JOINT ltoe
				{
					OFFSET 0.041054 -0.060286 0.122042
					CHANNELS 3 Zrotation Yrotation Xrotation
					End Site
					{
						OFFSET 0.000000 0.000000 0.000000
					}
				}
			}
		}
	}
	JOINT rhip
	{
		OFFSET -0.060310 -0.090513 -0.013543
		CHANNELS 3 Zrotation Yrotation Xrotation
		JOINT rknee
		{
			OFFSET -0.043257 -0.383688 -0.004843
			CHANNELS 3 Zrotation Yrotation Xrotation
			JOINT rankle
			{
				OFFSET 0.019056 -0.420046 -0.034562
				CHANNELS 3 Zrotation Yrotation Xrotation
				JOINT rtoe
				{
					OFFSET -0.034840 -0.062106 0.130323
					CHANNELS 3 Zrotation Yrotation Xrotation
					End Site
					{
						OFFSET 0.000000 0.000000 0.000000
					}
				}
			}
		}
	}
	JOINT lowerback
	{
		OFFSET 0.004439 0.124404 -0.038385
		CHANNELS 3 Zrotation Yrotation Xrotation
		JOINT upperback
		{
			OFFSET 0.004488 0.137956 0.026820
			CHANNELS 3 Zrotation Yrotation Xrotation
			JOINT chest
			{
				OFFSET -0.002265 0.056032 0.002855
				CHANNELS 3 Zrotation Yrotation Xrotation
				JOINT lowerneck
				{
					OFFSET -0.013390 0.211636 -0.033468
					CHANNELS 3 Zrotation Yrotation Xrotation
					JOINT upperneck
					{
						OFFSET 0.010113 0.088937 0.050410
						CHANNELS 3 Zrotation Yrotation Xrotation
						End Site
						{
							OFFSET 0.000000 0.000000 0.000000
						}
					}
				}
				JOINT lclavicle
				{
					OFFSET 0.071702 0.114000 -0.018898
					CHANNELS 3 Zrotation Yrotation Xrotation
					JOINT lshoulder
					{
						OFFSET 0.122921 0.045205 -0.019046
						CHANNELS 3 Zrotation Yrotation Xrotation
						JOINT lelbow
						{
							OFFSET 0.255332 -0.015649 -0.022946
							CHANNELS 3 Zrotation Yrotation Xrotation
							JOINT lwrist
							{
								OFFSET 0.265709 0.012698 -0.007375
								CHANNELS 3 Zrotation Yrotation Xrotation
								End Site
								{
									OFFSET 0.000000 0.000000 0.000000
								}
							}
						}
					}
				}
				JOINT rclavicle
				{
					OFFSET -0.082954 0.112472 -0.023707
					CHANNELS 3 Zrotation Yrotation Xrotation
					JOINT rshoulder
					{
						OFFSET -0.113228 0.046853 -0.008472
						CHANNELS 3 Zrotation Yrotation Xrotation
						JOINT relbow
						{
							OFFSET -0.260127 -0.014369 -0.031269
							CHANNELS 3 Zrotation Yrotation Xrotation
							JOINT rwrist
							{
								OFFSET -0.269108 0.006794 -0.006027
								CHANNELS 3 Zrotation Yrotation Xrotation
								End Site
								{
									OFFSET 0.000000 0.000000 0.000000
								}
							}
						}
					}
				}
			}
		}
	}
}
MOTION
Frames: 15
Frame Time: 0.033333
-0.131318 1.279034 0.887540 106.347174 0.529036 132.879687 20.111669 7.879736 -71.515779 -9.170186 -1.741730 26.077033 -6.024932 -8.996312 -6.747259 0.000000 -0.000000 0.000000 -17.787638 -10.859500 -59.791535 -1.160454 -2.063527 35.059772 10.634731 4.470839 -19.682774 0.000000 -0.000000 0.000000 -0.174743 2.921837 51.621548 -5.497629 -2.318396 -13.649899 0.650846 0.287901 -0.962338 -15.302068 4.021208 -26.003998 3.679939 3.281277 -16.156647 -14.323090 -24.633140 -4.720175 -34.421106 -22.831868 6.956256 76.613477 -70.647468 -59.520726 21.478405 -4.619956 -26.549653 11.174142 28.149567 -2.788519 39.499693 30.949014 4.626883 -56.197737 59.202761 -45.137130 -12.339553 9.796439 -10.916499 
-0.133499 1.278935 0.887277 106.550271 0.459626 132.520635 20.219035 7.465661 -71.457763 -9.112082 -1.670841 26.151132 -5.964180 -9.054469 -6.613291 0.000000 -0.000000 0.000000 -17.809910 -10.894051 -59.457530 -1.268289 -2.155031 35.065052 10.987343 4.513773 -19.621029 0.000000 -0.000000 0.000000 0.058655 2.320656 51.813832 -5.851077 -2.130285 -13.890652 0.093007 0.448842 -0.386365 -14.187466 4.219826 -27.468745 3.218873 2.692976 -15.254967 -14.288131 -22.994105 -4.151544 -36.761911 -22.994826 8.085769 89.843764 -71.863541 -69.154464 19.485152 -4.210559 -27.496077 10.606907 27.430225 -2.906890 38.812498 31.909801 3.602397 -57.179171 59.117176 -44.528759 -10.606411 9.884434 -12.006076 
-0.135228 1.280234 0.886593 106.898281 0.555374 132.697529 20.098958 7.628633 -72.046117 -9.172602 -1.483322 26.454198 -5.881025 -9.618495 -6.521217 0.000000 -0.000000 0.000000 -17.431204 -11.012187 -59.626441 -1.577644 -2.089976 34.986468 10.390043 4.615090 -19.603285 0.000000 -0.000000 0.000000 0.366362 1.883427 51.174165 -6.027464 -2.056433 -13.225722 0.227420 0.333771 -1.094839 -14.190428 2.603046 -27.339833 4.069752 3.865905 -15.537386 -15.569263 -21.734906 -4.257885 -38.903713 -21.254542 8.927213 104.516793 -72.740072 -82.050075 17.791289 -4.115283 -28.053656 10.356425 27.619051 -2.360020 38.395650 31.674384 2.577828 -56.690140 59.123172 -45.118192 -11.199884 10.140172 -10.999401 
-0.137305 1.282334 0.885551 107.030074 0.560622 132.580836 20.303770 7.441060 -72.228004 -9.256332 -1.291325 26.642626 -5.809741 -9.619496 -6.383937 0.000000 -0.000000 0.000000 -17.516202 -11.005817 -59.518326 -1.683418 -2.005397 35.047934 10.338740 4.320672 -19.348888 0.000000 -0.000000 0.000000 0.371524 1.588476 51.296524 -6.115673 -1.994834 -13.195124 0.180403 0.469075 -1.203335 -13.791017 1.886896 -27.494562 4.225064 3.961312 -15.525194 -16.178236 -20.602259 -3.950165 -40.708412 -20.665504 9.710044 118.050394 -72.487262 -93.526026 15.979308 -2.695635 -29.244008 10.485997 27.128213 -1.955763 37.973350 31.421699 1.916512 -55.651811 58.975418 -44.279579 -10.979567 9.987145 -12.061798 
-0.139681 1.284965 0.883861 107.154796 0.534855 132.451829 19.976471 7.261296 -72.748918 -9.098684 -1.327405 27.436281 -5.902508 -9.846897 -6.690741 0.000000 -0.000000 0.000000 -17.745188 -11.144943 -59.367452 -1.882846 -2.295917 35.149585 10.690130 4.767877 -19.350045 0.000000 -0.000000 0.000000 0.427794 1.405382 51.442470 -6.347220 -1.964606 -13.394397 -0.073502 1.060783 -0.786940 -13.176487 1.993172 -28.167093 4.116405 3.091969 -15.267920 -16.290704 -19.717986 -4.107658 -42.655036 -21.070016 10.822252 128.711047 -71.573723 -102.840433 15.800055 -3.201387 -30.689566 11.133362 26.104004 -1.658537 37.302491 30.773181 1.097993 -53.100219 58.646874 -42.071655 -12.295660 10.107391 -12.117851 
-0.140867 1.287409 0.882882 107.236423 0.739061 132.243152 20.383345 7.394601 -72.808791 -9.411868 -0.762233 27.925494 -5.844894 -10.120793 -6.858063 0.000000 -0.000000 0.000000 -17.607087 -11.123442 -59.236126 -2.085271 -2.340143 35.341186 10.521922 5.069315 -19.280187 0.000000 -0.000000 0.000000 0.275904 1.144740 51.831073 -6.566050 -1.773851 -13.221947 -0.212530 1.422697 -1.131479 -13.069228 1.518667 -28.244880 4.726966 3.021295 -15.254123 -16.682501 -18.947268 -4.348472 -43.918991 -20.806041 12.149116 136.747984 -69.737427 -109.811577 15.382792 -2.853114 -31.624074 11.940228 26.018566 -1.000092 37.158831 29.580847 0.849602 -51.137686 57.557431 -40.581096 -11.340226 9.499445 -11.773743 
-0.141470 1.289837 0.881284 107.382496 0.782907 131.887051 20.650300 7.225669 -72.805297 -9.533595 -0.236866 28.518594 -5.924168 -10.414037 -7.388507 0.000000 -0.000000 0.000000 -17.781139 -10.951599 -58.605520 -2.516263 -2.593381 35.118510 10.546683 5.408925 -19.785534 0.000000 -0.000000 0.000000 0.187932 0.889143 52.484902 -6.824901 -1.745308 -13.338964 -0.412135 1.874823 -1.256183 -13.044821 1.754453 -28.112679 4.935136 2.335986 -15.384616 -17.317879 -18.266875 -4.197513 -44.427969 -21.014572 12.768362 141.431504 -67.963915 -113.555036 14.019559 -4.360733 -31.897934 13.246352 25.756929 0.096378 36.342477 28.872153 0.128536 -46.535339 55.893579 -35.859621 -12.453948 9.995585 -11.054187 
-0.142280 1.292427 0.879728 107.471801 0.889818 131.661439 20.579597 7.298694 -73.067487 -9.710259 -0.033290 29.203359 -5.636597 -10.759150 -7.550372 0.000000 -0.000000 0.000000 -17.693734 -10.843393 -58.436960 -2.648945 -2.076885 35.085486 10.308607 5.163431 -19.959854 0.000000 -0.000000 0.000000 -0.031284 1.060522 52.753503 -6.730180 -1.774470 -13.150198 -0.331309 2.182496 -1.319197 -13.355687 1.107882 -28.518442 5.383668 2.216761 -15.052291 -17.271825 -17.915734 -4.672812 -45.562514 -21.192171 13.698081 145.990551 -66.346179 -118.270480 16.476441 -4.577475 -33.128548 13.930880 25.623009 0.212537 36.419057 27.443400 0.378459 -44.051489 54.585265 -34.971641 -10.548471 8.632690 -10.776306 
-0.143323 1.295278 0.877335 107.594268 0.853668 131.588181 20.733514 7.208636 -73.588547 -10.263050 0.069925 29.997566 -5.174982 -10.334522 -7.772209 0.000000 -0.000000 0.000000 -17.872722 -11.109750 -58.506622 -2.568740 -1.991964 35.572933 10.163068 5.125336 -20.033148 0.000000 -0.000000 0.000000 -0.122048 0.771347 52.845739 -6.903973 -1.801917 -13.232702 -0.558782 2.262643 -1.341298 -13.390534 0.787676 -28.323146 5.637336 2.436178 -15.048767 -17.766467 -17.352721 -4.606333 -45.158621 -21.609418 13.649066 149.110679 -64.271484 -120.466073 15.940402 -4.005146 -33.289379 14.602186 25.670252 1.226335 36.908220 26.562640 0.354650 -41.528981 52.868915 -32.060515 -8.840785 8.008147 -10.499096 
-0.143263 1.297552 0.875768 107.712381 0.972195 130.813831 20.531278 6.693086 -73.631754 -10.034928 -0.313540 31.519471 -4.848336 -10.205525 -8.754751 0.000000 -0.000000 0.000000 -17.934151 -10.837817 -57.924376 -2.875117 -1.862686 36.141255 10.420697 5.324271 -20.653044 0.000000 -0.000000 0.000000 -0.385908 0.956031 53.811618 -6.925267 -1.826845 -13.699560 -0.689663 2.822592 -0.833141 -13.124690 1.386479 -28.946232 5.707831 1.300674 -14.304448 -16.816764 -17.222209 -5.059465 -45.846014 -22.752623 14.184750 149.603662 -63.294391 -120.720482 17.063312 -4.428704 -33.376118 15.153320 24.955420 0.747648 37.963200 25.373346 0.736783 -39.827442 51.733525 -29.821625 -6.295888 7.471087 -9.224529 
-0.144993 1.300643 0.874065 108.103172 0.890586 130.774359 20.467593 6.457597 -74.334720 -10.276286 -0.022189 32.379384 -4.578617 -10.450351 -8.885037 0.000000 -0.000000 0.000000 -18.195363 -11.035300 -58.039794 -2.856763 -1.891443 36.779539 10.606091 4.727079 -20.564604 0.000000 -0.000000 0.000000 -0.354179 0.856984 53.364142 -6.640965 -1.972962 -13.065417 -0.775354 3.023569 -1.105618 -13.260141 1.207592 -29.072315 5.729413 1.305648 -13.895819 -16.756444 -17.068826 -5.682444 -45.905720 -23.168318 14.065324 149.506589 -62.898551 -120.860517 18.123892 -4.386955 -32.855222 15.682626 24.731529 1.219860 38.377278 23.914038 1.393417 -39.207135 51.538831 -29.250285 -4.945696 6.442559 -7.881701 
-0.146273 1.303901 0.871953 108.229887 0.810785 130.556744 20.352579 6.285779 -74.782160 -10.566665 0.422297 33.257896 -3.946656 -10.661570 -9.211445 0.000000 -0.000000 0.000000 -18.386212 -11.159111 -57.977138 -3.061455 -1.821639 37.159913 10.493212 4.219402 -20.304530 0.000000 -0.000000 0.000000 -0.458210 0.914379 53.005496 -6.468848 -2.146630 -12.785063 -0.961554 3.129691 -0.733832 -12.971468 1.622052 -29.853409 5.567714 1.014264 -13.207957 -16.091663 -16.876708 -5.939253 -46.093464 -24.308632 13.858455 147.516134 -62.841440 -118.721298 19.471997 -4.786371 -31.766435 15.945267 24.218966 1.264864 39.502111 23.064114 2.245277 -39.032900 51.307129 -27.482151 -2.798797 6.908241 -7.467772 
-0.147134 1.307576 0.870709 108.435866 0.988738 129.804063 20.224718 6.523735 -74.701288 -11.405281 0.530011 34.078473 -3.797831 -10.846302 -9.269641 0.000000 -0.000000 0.000000 -18.345826 -11.037079 -57.502971 -3.099026 -1.545000 37.791702 10.799336 3.799134 -19.535301 0.000000 -0.000000 0.000000 -0.418383 0.910638 53.509394 -6.338595 -2.200847 -12.892899 -1.090506 3.033309 -0.552169 -12.892800 2.036911 -30.123804 5.719918 0.763925 -12.671684 -15.744311 -16.675501 -6.057492 -45.237702 -25.145712 13.133898 145.322525 -63.070063 -116.303067 20.406717 -4.676512 -31.547565 16.359728 23.627483 1.239473 40.329985 21.970523 2.966934 -38.824954 52.448864 -26.308688 -2.430512 7.102486 -8.342009 
-0.147566 1.312961 0.869599 108.337743 1.251637 129.235166 20.214959 6.524981 -74.479164 -11.662689 0.818837 34.847634 -3.410659 -10.948536 -9.856043 0.000000 -0.000000 0.000000 -18.327493 -10.713879 -56.789105 -3.184328 -0.846287 37.327630 10.240047 3.123015 -19.575941 0.000000 -0.000000 0.000000 -0.552400 1.243798 53.355178 -5.934627 -2.431651 -11.927137 -0.746556 2.577256 -1.341261 -13.293957 1.446571 -30.173081 6.210501 1.768746 -12.710486 -16.201097 -16.749467 -6.439118 -44.056586 -24.231016 11.810334 144.088832 -63.215943 -115.549127 21.033636 -5.265496 -29.490521 16.493879 23.502989 1.179281 41.909132 20.489058 4.083774 -40.734943 53.883692 -27.825097 -1.223066 7.717453 -7.350220 
-0.148860 1.319745 0.868344 108.178158 1.655232 128.338810 20.161326 6.215387 -74.292060 -11.721375 0.476596 36.180329 -3.366745 -10.802009 -10.526673 0.000000 -0.000000 0.000000 -18.474319 -10.369324 -55.832695 -3.562461 -1.132647 37.086615 10.536292 3.093134 -18.923499 0.000000 -0.000000 0.000000 -0.531440 1.718972 53.520615 -5.436133 -2.596883 -11.311068 -0.422856 2.127462 -1.611343 -13.365450 1.791635 -30.168734 5.867253 1.881084 -12.553377 -15.755042 -16.965797 -6.597906 -43.696404 -23.652788 10.544176 142.726723 -62.923789 -113.452080 20.509559 -5.426711 -26.414067 16.235817 22.868984 0.819601 43.529495 19.068926 4.744236 -42.694759 56.202129 -28.979978 0.662175 8.333482 -7.645223 
